<svg width="299" height="77" viewBox="0 0 299 77" fill="none" xmlns="http://www.w3.org/2000/svg">
<path d="M73.98 31L80.32 17H82.3L88.66 31H86.56L80.9 18.12H81.7L76.04 31H73.98ZM76.68 27.5L77.22 25.9H85.1L85.68 27.5H76.68ZM96.0884 31.12C95.2084 31.12 94.4018 30.92 93.6684 30.52C92.9484 30.1067 92.3684 29.5 91.9284 28.7C91.5018 27.9 91.2884 26.9 91.2884 25.7C91.2884 24.5 91.4951 23.5 91.9084 22.7C92.3351 21.9 92.9084 21.3 93.6284 20.9C94.3618 20.5 95.1818 20.3 96.0884 20.3C97.1284 20.3 98.0484 20.5267 98.8484 20.98C99.6484 21.4333 100.282 22.0667 100.748 22.88C101.215 23.68 101.448 24.62 101.448 25.7C101.448 26.78 101.215 27.7267 100.748 28.54C100.282 29.3533 99.6484 29.9867 98.8484 30.44C98.0484 30.8933 97.1284 31.12 96.0884 31.12ZM90.4684 34.88V20.4H92.3084V23.26L92.1884 25.72L92.3884 28.18V34.88H90.4684ZM95.9284 29.44C96.6084 29.44 97.2151 29.2867 97.7484 28.98C98.2951 28.6733 98.7218 28.24 99.0284 27.68C99.3484 27.1067 99.5084 26.4467 99.5084 25.7C99.5084 24.94 99.3484 24.2867 99.0284 23.74C98.7218 23.18 98.2951 22.7467 97.7484 22.44C97.2151 22.1333 96.6084 21.98 95.9284 21.98C95.2618 21.98 94.6551 22.1333 94.1084 22.44C93.5751 22.7467 93.1484 23.18 92.8284 23.74C92.5218 24.2867 92.3684 24.94 92.3684 25.7C92.3684 26.4467 92.5218 27.1067 92.8284 27.68C93.1484 28.24 93.5751 28.6733 94.1084 28.98C94.6551 29.2867 95.2618 29.44 95.9284 29.44ZM109.721 31.12C108.841 31.12 108.035 30.92 107.301 30.52C106.581 30.1067 106.001 29.5 105.561 28.7C105.135 27.9 104.921 26.9 104.921 25.7C104.921 24.5 105.128 23.5 105.541 22.7C105.968 21.9 106.541 21.3 107.261 20.9C107.995 20.5 108.815 20.3 109.721 20.3C110.761 20.3 111.681 20.5267 112.481 20.98C113.281 21.4333 113.915 22.0667 114.381 22.88C114.848 23.68 115.081 24.62 115.081 25.7C115.081 26.78 114.848 27.7267 114.381 28.54C113.915 29.3533 113.281 29.9867 112.481 30.44C111.681 30.8933 110.761 31.12 109.721 31.12ZM104.101 34.88V20.4H105.941V23.26L105.821 25.72L106.021 28.18V34.88H104.101ZM109.561 29.44C110.241 29.44 110.848 29.2867 111.381 28.98C111.928 28.6733 112.355 28.24 112.661 27.68C112.981 27.1067 113.141 26.4467 113.141 25.7C113.141 24.94 112.981 24.2867 112.661 23.74C112.355 23.18 111.928 22.7467 111.381 22.44C110.848 22.1333 110.241 21.98 109.561 21.98C108.895 21.98 108.288 22.1333 107.741 22.44C107.208 22.7467 106.781 23.18 106.461 23.74C106.155 24.2867 106.001 24.94 106.001 25.7C106.001 26.4467 106.155 27.1067 106.461 27.68C106.781 28.24 107.208 28.6733 107.741 28.98C108.288 29.2867 108.895 29.44 109.561 29.44ZM127.465 31.16C126.398 31.16 125.378 31 124.405 30.68C123.432 30.3467 122.665 29.92 122.105 29.4L122.845 27.84C123.378 28.3067 124.058 28.6933 124.885 29C125.712 29.3067 126.572 29.46 127.465 29.46C128.278 29.46 128.938 29.3667 129.445 29.18C129.952 28.9933 130.325 28.74 130.565 28.42C130.805 28.0867 130.925 27.7133 130.925 27.3C130.925 26.82 130.765 26.4333 130.445 26.14C130.138 25.8467 129.732 25.6133 129.225 25.44C128.732 25.2533 128.185 25.0933 127.585 24.96C126.985 24.8267 126.378 24.6733 125.765 24.5C125.165 24.3133 124.612 24.08 124.105 23.8C123.612 23.52 123.212 23.1467 122.905 22.68C122.598 22.2 122.445 21.5867 122.445 20.84C122.445 20.12 122.632 19.46 123.005 18.86C123.392 18.2467 123.978 17.76 124.765 17.4C125.565 17.0267 126.578 16.84 127.805 16.84C128.618 16.84 129.425 16.9467 130.225 17.16C131.025 17.3733 131.718 17.68 132.305 18.08L131.645 19.68C131.045 19.28 130.412 18.9933 129.745 18.82C129.078 18.6333 128.432 18.54 127.805 18.54C127.018 18.54 126.372 18.64 125.865 18.84C125.358 19.04 124.985 19.3067 124.745 19.64C124.518 19.9733 124.405 20.3467 124.405 20.76C124.405 21.2533 124.558 21.6467 124.865 21.94C125.185 22.2333 125.592 22.4667 126.085 22.64C126.592 22.8133 127.145 22.9733 127.745 23.12C128.345 23.2533 128.945 23.4067 129.545 23.58C130.158 23.7533 130.712 23.98 131.205 24.26C131.712 24.54 132.118 24.9133 132.425 25.38C132.732 25.8467 132.885 26.4467 132.885 27.18C132.885 27.8867 132.692 28.5467 132.305 29.16C131.918 29.76 131.318 30.2467 130.505 30.62C129.705 30.98 128.692 31.16 127.465 31.16ZM139.167 31.12C138.1 31.12 137.274 30.8333 136.687 30.26C136.1 29.6867 135.807 28.8667 135.807 27.8V18.08H137.727V27.72C137.727 28.2933 137.867 28.7333 138.147 29.04C138.44 29.3467 138.854 29.5 139.387 29.5C139.987 29.5 140.487 29.3333 140.887 29L141.487 30.38C141.194 30.6333 140.84 30.82 140.427 30.94C140.027 31.06 139.607 31.12 139.167 31.12ZM134.007 21.98V20.4H140.767V21.98H134.007ZM147.997 31.12C146.93 31.12 145.983 30.8867 145.157 30.42C144.33 29.9533 143.677 29.3133 143.197 28.5C142.717 27.6733 142.477 26.74 142.477 25.7C142.477 24.6467 142.717 23.7133 143.197 22.9C143.677 22.0867 144.33 21.4533 145.157 21C145.983 20.5333 146.93 20.3 147.997 20.3C149.05 20.3 149.99 20.5333 150.817 21C151.657 21.4533 152.31 22.0867 152.777 22.9C153.257 23.7 153.497 24.6333 153.497 25.7C153.497 26.7533 153.257 27.6867 152.777 28.5C152.31 29.3133 151.657 29.9533 150.817 30.42C149.99 30.8867 149.05 31.12 147.997 31.12ZM147.997 29.44C148.677 29.44 149.283 29.2867 149.817 28.98C150.363 28.6733 150.79 28.24 151.097 27.68C151.403 27.1067 151.557 26.4467 151.557 25.7C151.557 24.94 151.403 24.2867 151.097 23.74C150.79 23.18 150.363 22.7467 149.817 22.44C149.283 22.1333 148.677 21.98 147.997 21.98C147.317 21.98 146.71 22.1333 146.177 22.44C145.643 22.7467 145.217 23.18 144.897 23.74C144.577 24.2867 144.417 24.94 144.417 25.7C144.417 26.4467 144.577 27.1067 144.897 27.68C145.217 28.24 145.643 28.6733 146.177 28.98C146.71 29.2867 147.317 29.44 147.997 29.44ZM156.152 31V20.4H157.992V23.28L157.812 22.56C158.105 21.8267 158.599 21.2667 159.292 20.88C159.985 20.4933 160.839 20.3 161.852 20.3V22.16C161.772 22.1467 161.692 22.14 161.612 22.14C161.545 22.14 161.479 22.14 161.412 22.14C160.385 22.14 159.572 22.4467 158.972 23.06C158.372 23.6733 158.072 24.56 158.072 25.72V31H156.152ZM168.841 31.12C167.707 31.12 166.707 30.8867 165.841 30.42C164.987 29.9533 164.321 29.3133 163.841 28.5C163.374 27.6867 163.141 26.7533 163.141 25.7C163.141 24.6467 163.367 23.7133 163.821 22.9C164.287 22.0867 164.921 21.4533 165.721 21C166.534 20.5333 167.447 20.3 168.461 20.3C169.487 20.3 170.394 20.5267 171.181 20.98C171.967 21.4333 172.581 22.0733 173.021 22.9C173.474 23.7133 173.701 24.6667 173.701 25.76C173.701 25.84 173.694 25.9333 173.681 26.04C173.681 26.1467 173.674 26.2467 173.661 26.34H164.641V24.96H172.661L171.881 25.44C171.894 24.76 171.754 24.1533 171.461 23.62C171.167 23.0867 170.761 22.6733 170.241 22.38C169.734 22.0733 169.141 21.92 168.461 21.92C167.794 21.92 167.201 22.0733 166.681 22.38C166.161 22.6733 165.754 23.0933 165.461 23.64C165.167 24.1733 165.021 24.7867 165.021 25.48V25.8C165.021 26.5067 165.181 27.14 165.501 27.7C165.834 28.2467 166.294 28.6733 166.881 28.98C167.467 29.2867 168.141 29.44 168.901 29.44C169.527 29.44 170.094 29.3333 170.601 29.12C171.121 28.9067 171.574 28.5867 171.961 28.16L173.021 29.4C172.541 29.96 171.941 30.3867 171.221 30.68C170.514 30.9733 169.721 31.12 168.841 31.12Z" fill="white"/>
<path d="M79.894 62.084C79.1473 62.084 78.4567 61.9627 77.822 61.72C77.1967 61.468 76.6507 61.118 76.184 60.67C75.7267 60.222 75.3673 59.6947 75.106 59.088C74.854 58.4813 74.728 57.8187 74.728 57.1C74.728 56.3813 74.854 55.7187 75.106 55.112C75.3673 54.5053 75.7313 53.978 76.198 53.53C76.6647 53.082 77.2107 52.7367 77.836 52.494C78.4707 52.242 79.1613 52.116 79.908 52.116C80.6547 52.116 81.336 52.2327 81.952 52.466C82.5773 52.6993 83.1093 53.054 83.548 53.53L82.904 54.188C82.4933 53.7773 82.0407 53.4833 81.546 53.306C81.0513 53.1287 80.5193 53.04 79.95 53.04C79.3433 53.04 78.7833 53.1427 78.27 53.348C77.766 53.544 77.3227 53.8287 76.94 54.202C76.5667 54.566 76.2727 54.9953 76.058 55.49C75.8527 55.9753 75.75 56.512 75.75 57.1C75.75 57.6787 75.8527 58.2153 76.058 58.71C76.2727 59.2047 76.5667 59.6387 76.94 60.012C77.3227 60.376 77.766 60.6607 78.27 60.866C78.7833 61.062 79.3387 61.16 79.936 61.16C80.496 61.16 81.0233 61.076 81.518 60.908C82.022 60.74 82.484 60.4553 82.904 60.054L83.492 60.838C83.0253 61.2487 82.4793 61.5613 81.854 61.776C81.2287 61.9813 80.5753 62.084 79.894 62.084ZM82.498 60.712V57.1H83.492V60.838L82.498 60.712ZM89.3361 62.07C88.5708 62.07 87.8988 61.9113 87.3201 61.594C86.7415 61.2673 86.2888 60.824 85.9621 60.264C85.6355 59.6947 85.4721 59.046 85.4721 58.318C85.4721 57.59 85.6261 56.946 85.9341 56.386C86.2515 55.826 86.6808 55.3873 87.2221 55.07C87.7728 54.7433 88.3888 54.58 89.0701 54.58C89.7608 54.58 90.3721 54.7387 90.9041 55.056C91.4455 55.364 91.8701 55.8027 92.1781 56.372C92.4861 56.932 92.6401 57.5807 92.6401 58.318C92.6401 58.3647 92.6355 58.416 92.6261 58.472C92.6261 58.5187 92.6261 58.57 92.6261 58.626H86.2281V57.884H92.0941L91.7021 58.178C91.7021 57.646 91.5855 57.1747 91.3521 56.764C91.1281 56.344 90.8201 56.0173 90.4281 55.784C90.0361 55.5507 89.5835 55.434 89.0701 55.434C88.5661 55.434 88.1135 55.5507 87.7121 55.784C87.3108 56.0173 86.9981 56.344 86.7741 56.764C86.5501 57.184 86.4381 57.6647 86.4381 58.206V58.36C86.4381 58.92 86.5595 59.4147 86.8021 59.844C87.0541 60.264 87.3995 60.5953 87.8381 60.838C88.2861 61.0713 88.7948 61.188 89.3641 61.188C89.8121 61.188 90.2275 61.1087 90.6101 60.95C91.0021 60.7913 91.3381 60.5487 91.6181 60.222L92.1781 60.866C91.8515 61.258 91.4408 61.5567 90.9461 61.762C90.4608 61.9673 89.9241 62.07 89.3361 62.07ZM96.9873 62.07C96.2967 62.07 95.7647 61.8833 95.3913 61.51C95.018 61.1367 94.8313 60.6093 94.8313 59.928V53.026H95.8253V59.872C95.8253 60.3013 95.9327 60.6327 96.1473 60.866C96.3713 61.0993 96.6887 61.216 97.0993 61.216C97.538 61.216 97.902 61.09 98.1913 60.838L98.5413 61.552C98.3453 61.7293 98.1073 61.86 97.8273 61.944C97.5567 62.028 97.2767 62.07 96.9873 62.07ZM93.5153 55.476V54.65H98.0653V55.476H93.5153ZM104.225 62V52.2H105.261V62H104.225ZM110.564 62.07C109.873 62.07 109.341 61.8833 108.968 61.51C108.594 61.1367 108.408 60.6093 108.408 59.928V53.026H109.402V59.872C109.402 60.3013 109.509 60.6327 109.724 60.866C109.948 61.0993 110.265 61.216 110.676 61.216C111.114 61.216 111.478 61.09 111.768 60.838L112.118 61.552C111.922 61.7293 111.684 61.86 111.404 61.944C111.133 62.028 110.853 62.07 110.564 62.07ZM107.092 55.476V54.65H111.642V55.476H107.092ZM117.801 62V52.2H118.655L125.417 60.712H124.969V52.2H125.991V62H125.137L118.389 53.488H118.837V62H117.801ZM131.976 62.07C131.266 62.07 130.627 61.9113 130.058 61.594C129.498 61.2673 129.054 60.824 128.728 60.264C128.401 59.6947 128.238 59.046 128.238 58.318C128.238 57.5807 128.401 56.932 128.728 56.372C129.054 55.812 129.498 55.3733 130.058 55.056C130.618 54.7387 131.257 54.58 131.976 54.58C132.704 54.58 133.348 54.7387 133.908 55.056C134.477 55.3733 134.92 55.812 135.238 56.372C135.564 56.932 135.728 57.5807 135.728 58.318C135.728 59.046 135.564 59.6947 135.238 60.264C134.92 60.824 134.477 61.2673 133.908 61.594C133.338 61.9113 132.694 62.07 131.976 62.07ZM131.976 61.188C132.508 61.188 132.979 61.0713 133.39 60.838C133.8 60.5953 134.122 60.2593 134.356 59.83C134.598 59.3913 134.72 58.8873 134.72 58.318C134.72 57.7393 134.598 57.2353 134.356 56.806C134.122 56.3767 133.8 56.0453 133.39 55.812C132.979 55.5693 132.512 55.448 131.99 55.448C131.467 55.448 131 55.5693 130.59 55.812C130.179 56.0453 129.852 56.3767 129.61 56.806C129.367 57.2353 129.246 57.7393 129.246 58.318C129.246 58.8873 129.367 59.3913 129.61 59.83C129.852 60.2593 130.179 60.5953 130.59 60.838C131 61.0713 131.462 61.188 131.976 61.188ZM139.05 62L136.278 54.65H137.23L139.75 61.468H139.316L141.906 54.65H142.76L145.322 61.468H144.888L147.45 54.65H148.36L145.574 62H144.636L142.172 55.588H142.466L139.988 62H139.05Z" fill="#DEE4F9"/>
<path d="M43.8241 15.9696L43.7735 15L42.8085 15.1039C42.7138 15.114 33.3861 16.238 32.7464 26.6668L32.682 27.7109L33.7261 27.6401C33.8327 27.6328 44.3976 26.79 43.8241 15.9696ZM42.0034 17.1341C41.8278 23.4188 36.9383 25.1669 34.6939 25.6384C35.5487 19.5311 39.9777 17.6699 42.0034 17.1341Z" fill="white"/>
<path d="M52.8145 49.0092L52.2272 48.819C48.6732 47.6701 46.2863 44.4147 46.2863 40.7182C46.2863 37.4297 48.1456 34.4886 51.14 33.042L52.0333 32.6109L51.5352 31.7534C51.3219 31.3858 49.3285 28.1295 45.1172 27.0514C41.7773 26.1967 38.0219 26.9531 33.9513 29.3004C32.228 28.2545 26.504 25.2399 21.9499 28.2618C21.0584 28.7545 11.6093 34.4151 16.5273 49.6884C16.6716 50.0303 20.1007 58.064 24.1585 61.0731C25.2531 62.119 28.0526 63.4259 31.2519 61.245C31.8062 61.0161 35.5147 59.5888 37.8675 61.2606C38.736 61.8552 40.2525 62.5289 41.8545 62.5289C43.0695 62.5289 44.3332 62.142 45.4012 61.0391C45.8994 60.608 50.4497 56.5466 52.8145 50.113L52.8835 49.9255L52.8145 49.0092ZM44.1733 59.6687L44.1026 59.7358C42.087 61.8525 39.0311 59.8277 38.918 59.7524C37.7159 58.8976 36.3234 58.6191 35.0174 58.6191C32.6471 58.6191 30.5626 59.5373 30.4294 59.597L30.2796 59.6816C27.5048 61.6181 25.6051 59.9141 25.4038 59.7202L25.2954 59.6274C21.6255 56.951 18.2524 49.0515 18.2478 49.0487C13.6451 34.7405 22.4628 30.0605 22.8377 29.8702L22.9388 29.8105C27.2098 26.943 33.3493 31.0935 33.41 31.1349L33.8998 31.4713L34.4072 31.1652C38.2305 28.8537 41.6808 28.0679 44.6614 28.8317C47.0896 29.453 48.6373 30.9704 49.3946 31.9032C46.3185 33.7883 44.449 37.0777 44.449 40.7182C44.449 44.9055 46.9627 48.6259 50.7926 50.2445C48.4351 55.9988 44.2184 59.631 44.1733 59.6687Z" fill="white"/>
<rect x="0.5" y="0.5" width="298" height="76" rx="7.5" stroke="#DDE8F9"/>
</svg>
