<svg width="12" height="12" viewBox="0 0 12 12" fill="none" xmlns="http://www.w3.org/2000/svg">
<path d="M12 6.10552C12 5.56233 11.558 5.12038 11.0148 5.12038H1.65331V1.91835C1.65331 1.54975 1.95318 1.24988 2.32178 1.24988H2.49679C2.67789 1.24988 2.84875 1.32349 2.97283 1.44914L2.94316 1.47881C2.44492 1.97706 2.44492 2.78772 2.94316 3.28602L3.11218 3.45504C3.18669 3.52955 3.28436 3.56683 3.38207 3.56683C3.47979 3.56683 3.5774 3.5296 3.65196 3.45504L5.32076 1.78624C5.46978 1.63723 5.46978 1.39553 5.32076 1.24652L5.15174 1.07749C4.91041 0.836116 4.58949 0.703219 4.24819 0.703219C3.98728 0.703219 3.73844 0.781088 3.52783 0.925484C3.26125 0.649083 2.8905 0.486572 2.49685 0.486572H2.32184C1.53233 0.486572 0.890005 1.12885 0.890005 1.9184V5.12526C0.391287 5.1733 0 5.59457 0 6.10558C0 6.52349 0.262013 6.88059 0.630092 7.02346V8.28134C0.630092 9.39077 1.41975 10.3193 2.46655 10.5344L2.13911 10.8619C1.99009 11.0109 1.99009 11.2525 2.13911 11.4016C2.21362 11.4761 2.31128 11.5133 2.409 11.5133C2.50672 11.5133 2.60433 11.4761 2.67889 11.4016L3.49948 10.5814H8.50031L9.32116 11.4016C9.39562 11.4761 9.49328 11.5133 9.59105 11.5133C9.68872 11.5133 9.78638 11.4761 9.86094 11.4016C10.01 11.2525 10.01 11.0109 9.86094 10.8619L9.5335 10.5344C10.5804 10.3193 11.37 9.39082 11.37 8.28134V7.02346C11.7379 6.88049 12 6.52349 12 6.10552ZM4.24819 1.46647C4.33671 1.46647 4.42178 1.48863 4.49707 1.53037L3.39635 2.63109C3.28845 2.4355 3.31733 2.18409 3.48299 2.01848L3.88436 1.61712C3.98155 1.51998 4.11077 1.46647 4.24819 1.46647ZM0.985202 5.88373H11.0148C11.1371 5.88373 11.2367 5.98323 11.2367 6.10563C11.2367 6.22792 11.1371 6.32747 11.0148 6.32747H0.985202C0.862859 6.32747 0.763357 6.22792 0.763357 6.10563C0.763357 5.98323 0.862859 5.88373 0.985202 5.88373ZM10.6066 8.28129C10.6066 9.12865 9.91707 9.81808 9.0696 9.81808H2.93035C2.08287 9.81808 1.3934 9.12871 1.3934 8.28129V7.1017H10.6066V8.28129Z" fill="#212A41"/>
<path d="M4.83379 4.34227C4.86992 4.3784 4.91723 4.39646 4.96459 4.39646C5.01195 4.39646 5.05926 4.3784 5.09538 4.34227C5.16763 4.27002 5.16763 4.15293 5.09538 4.08068L4.90898 3.89428C4.83673 3.82203 4.71964 3.82203 4.64739 3.89428C4.57514 3.96653 4.57514 4.08362 4.64739 4.15587L4.83379 4.34227Z" fill="#212A41"/>
<path d="M5.39296 4.15578L5.57937 4.34218C5.61549 4.37831 5.6628 4.39637 5.71016 4.39637C5.75752 4.39637 5.80489 4.37831 5.84101 4.34218C5.91321 4.26993 5.91321 4.15279 5.84101 4.08054L5.65461 3.89413C5.58236 3.82188 5.46521 3.82194 5.39296 3.89413C5.32071 3.96644 5.32071 4.08353 5.39296 4.15578Z" fill="#212A41"/>
<path d="M4.72258 3.33501L4.53618 3.14861C4.46393 3.07636 4.34684 3.07636 4.27459 3.14861C4.20234 3.22086 4.20234 3.3379 4.27459 3.4102L4.46099 3.5966C4.49711 3.63273 4.54442 3.65079 4.59178 3.65079C4.63915 3.65079 4.68646 3.63273 4.72258 3.5966C4.79483 3.52441 4.79483 3.40726 4.72258 3.33501Z" fill="#212A41"/>
<path d="M5.28182 3.14861C5.20956 3.07636 5.09247 3.07636 5.02022 3.14861C4.94797 3.22086 4.94797 3.3379 5.02022 3.4102L5.20662 3.5966C5.24275 3.63273 5.29006 3.65079 5.33742 3.65079C5.38478 3.65079 5.43209 3.63273 5.46822 3.5966C5.54047 3.52435 5.54047 3.40726 5.46822 3.33501L5.28182 3.14861Z" fill="#212A41"/>
<path d="M5.00898 2.39183C4.93678 2.46408 4.93678 2.58123 5.00898 2.65348L5.19538 2.83988C5.23151 2.87601 5.27882 2.89407 5.32618 2.89407C5.37354 2.89407 5.42091 2.87601 5.45703 2.83988C5.52923 2.76763 5.52923 2.65049 5.45703 2.57824L5.27063 2.39183C5.19838 2.31958 5.08123 2.31958 5.00898 2.39183Z" fill="#212A41"/>
<path d="M5.91609 3.37368C5.95221 3.4098 5.99952 3.42786 6.04688 3.42786C6.09425 3.42786 6.14161 3.4098 6.17773 3.37368C6.24993 3.30143 6.24993 3.18428 6.17773 3.11203L5.99133 2.92563C5.91908 2.85338 5.80194 2.85343 5.72969 2.92563C5.65749 2.99788 5.65749 3.11502 5.72969 3.18727L5.91609 3.37368Z" fill="#212A41"/>
</svg>
