<svg width="190" height="48" viewBox="0 0 190 48" fill="none" xmlns="http://www.w3.org/2000/svg">
<path d="M3.42809 20.114C2.62824 21.0182 2.99116 22.2486 4.16761 22.5025C5.08877 22.7012 6.35496 22.923 8.06066 23.1299C8.0201 24.4952 7.99536 26.0793 7.99536 27.9124C7.99536 32.7995 8.17119 35.917 8.35394 37.8373C8.5216 39.5991 9.71677 40.9412 11.4528 41.2282C13.7095 41.6014 17.6144 42 23.9993 42C30.3841 42 34.2891 41.6014 36.5458 41.2282C38.2818 40.9412 39.477 39.5991 39.6446 37.8373C39.8274 35.917 40.0032 32.7995 40.0032 27.9124C40.0032 26.0795 39.9785 24.4954 39.9379 23.1301C41.6442 22.9232 42.9107 22.7014 43.8322 22.5026C45.0089 22.2488 45.3718 21.018 44.5717 20.1136C43.1678 18.5268 40.5575 15.8216 36.0032 11.8123C30.7292 7.1695 27.1929 5.14975 25.3949 4.31228C24.5009 3.89585 23.4997 3.89591 22.6057 4.31242C20.808 5.14997 17.2721 7.16976 11.9974 11.8123C7.44193 15.8219 4.83163 18.5272 3.42809 20.114Z" fill="#212A41"/>
<path d="M26.1467 22.2093C25.5625 22.2936 25.1537 22.7312 25.0985 23.3188C25.0465 23.8714 25 24.7229 25 26C25 27.2771 25.0465 28.1286 25.0985 28.6812C25.1537 29.2688 25.5625 29.7064 26.1467 29.7907C26.861 29.8937 28.0666 30 30 30C31.9334 30 33.139 29.8937 33.8533 29.7907C34.4375 29.7064 34.8463 29.2688 34.9015 28.6812C34.9535 28.1286 35 27.2771 35 26C35 24.7229 34.9535 23.8714 34.9015 23.3188C34.8463 22.7312 34.4375 22.2936 33.8533 22.2093C33.139 22.1063 31.9334 22 30 22C28.0666 22 26.861 22.1063 26.1467 22.2093Z" fill="white"/>
<path d="M72.268 11.8H78.1V37H72.268V11.8ZM60.82 37H54.988V11.8H60.82V37ZM72.7 26.668H60.388V21.736H72.7V26.668ZM91.8382 37.288C90.2302 37.288 88.7902 36.976 87.5182 36.352C86.2702 35.728 85.2982 34.78 84.6022 33.508C83.9062 32.212 83.5582 30.568 83.5582 28.576V17.632H89.1742V27.748C89.1742 29.356 89.5102 30.544 90.1822 31.312C90.8782 32.056 91.8502 32.428 93.0982 32.428C93.9622 32.428 94.7302 32.248 95.4022 31.888C96.0742 31.504 96.6022 30.928 96.9862 30.16C97.3702 29.368 97.5622 28.384 97.5622 27.208V17.632H103.178V37H97.8502V31.672L98.8222 33.22C98.1742 34.564 97.2142 35.584 95.9422 36.28C94.6942 36.952 93.3262 37.288 91.8382 37.288ZM120.153 17.344C121.689 17.344 123.057 17.656 124.257 18.28C125.481 18.88 126.441 19.816 127.137 21.088C127.833 22.336 128.181 23.944 128.181 25.912V37H122.565V26.776C122.565 25.216 122.217 24.064 121.521 23.32C120.849 22.576 119.889 22.204 118.641 22.204C117.753 22.204 116.949 22.396 116.229 22.78C115.533 23.14 114.981 23.704 114.573 24.472C114.189 25.24 113.997 26.224 113.997 27.424V37H108.381V17.632H113.745V22.996L112.737 21.376C113.433 20.08 114.429 19.084 115.725 18.388C117.021 17.692 118.497 17.344 120.153 17.344ZM141.192 37.288C138.912 37.288 137.136 36.712 135.864 35.56C134.592 34.384 133.956 32.644 133.956 30.34V13.348H139.572V30.268C139.572 31.084 139.788 31.72 140.22 32.176C140.652 32.608 141.24 32.824 141.984 32.824C142.872 32.824 143.628 32.584 144.252 32.104L145.764 36.064C145.188 36.472 144.492 36.784 143.676 37C142.884 37.192 142.056 37.288 141.192 37.288ZM130.968 22.384V18.064H144.396V22.384H130.968ZM147.584 37V33.616L159.032 20.08L160.004 21.952H147.836V17.632H164.54V21.016L153.092 34.552L152.084 32.68H164.864V37H147.584ZM177.433 37.288C175.369 37.288 173.533 36.856 171.925 35.992C170.341 35.128 169.081 33.952 168.145 32.464C167.233 30.952 166.777 29.236 166.777 27.316C166.777 25.372 167.233 23.656 168.145 22.168C169.081 20.656 170.341 19.48 171.925 18.64C173.533 17.776 175.369 17.344 177.433 17.344C179.473 17.344 181.297 17.776 182.905 18.64C184.513 19.48 185.773 20.644 186.685 22.132C187.597 23.62 188.053 25.348 188.053 27.316C188.053 29.236 187.597 30.952 186.685 32.464C185.773 33.952 184.513 35.128 182.905 35.992C181.297 36.856 179.473 37.288 177.433 37.288ZM177.433 32.68C178.369 32.68 179.209 32.464 179.953 32.032C180.697 31.6 181.285 30.988 181.717 30.196C182.149 29.38 182.365 28.42 182.365 27.316C182.365 26.188 182.149 25.228 181.717 24.436C181.285 23.644 180.697 23.032 179.953 22.6C179.209 22.168 178.369 21.952 177.433 21.952C176.497 21.952 175.657 22.168 174.913 22.6C174.169 23.032 173.569 23.644 173.113 24.436C172.681 25.228 172.465 26.188 172.465 27.316C172.465 28.42 172.681 29.38 173.113 30.196C173.569 30.988 174.169 31.6 174.913 32.032C175.657 32.464 176.497 32.68 177.433 32.68Z" fill="black"/>
</svg>
