<svg width="299" height="77" viewBox="0 0 299 77" fill="none" xmlns="http://www.w3.org/2000/svg">
<path d="M82.42 31.16C81.34 31.16 80.3467 30.9867 79.44 30.64C78.5333 30.28 77.7467 29.78 77.08 29.14C76.4133 28.4867 75.8933 27.7267 75.52 26.86C75.1467 25.9933 74.96 25.04 74.96 24C74.96 22.96 75.1467 22.0067 75.52 21.14C75.8933 20.2733 76.4133 19.52 77.08 18.88C77.76 18.2267 78.5533 17.7267 79.46 17.38C80.3667 17.02 81.3667 16.84 82.46 16.84C83.5667 16.84 84.58 17.02 85.5 17.38C86.42 17.74 87.2 18.28 87.84 19L86.6 20.24C86.0267 19.68 85.4 19.2733 84.72 19.02C84.0533 18.7533 83.3267 18.62 82.54 18.62C81.74 18.62 80.9933 18.7533 80.3 19.02C79.62 19.2867 79.0267 19.66 78.52 20.14C78.0267 20.62 77.64 21.1933 77.36 21.86C77.0933 22.5133 76.96 23.2267 76.96 24C76.96 24.76 77.0933 25.4733 77.36 26.14C77.64 26.7933 78.0267 27.3667 78.52 27.86C79.0267 28.34 79.62 28.7133 80.3 28.98C80.98 29.2467 81.72 29.38 82.52 29.38C83.2667 29.38 83.98 29.2667 84.66 29.04C85.3533 28.8 85.9933 28.4067 86.58 27.86L87.72 29.38C87.0267 29.9667 86.2133 30.4133 85.28 30.72C84.36 31.0133 83.4067 31.16 82.42 31.16ZM85.8 29.12V23.92H87.72V29.38L85.8 29.12ZM95.8092 31.12C94.7426 31.12 93.7959 30.8867 92.9692 30.42C92.1426 29.9533 91.4892 29.3133 91.0092 28.5C90.5292 27.6733 90.2892 26.74 90.2892 25.7C90.2892 24.6467 90.5292 23.7133 91.0092 22.9C91.4892 22.0867 92.1426 21.4533 92.9692 21C93.7959 20.5333 94.7426 20.3 95.8092 20.3C96.8626 20.3 97.8026 20.5333 98.6292 21C99.4692 21.4533 100.123 22.0867 100.589 22.9C101.069 23.7 101.309 24.6333 101.309 25.7C101.309 26.7533 101.069 27.6867 100.589 28.5C100.123 29.3133 99.4692 29.9533 98.6292 30.42C97.8026 30.8867 96.8626 31.12 95.8092 31.12ZM95.8092 29.44C96.4892 29.44 97.0959 29.2867 97.6292 28.98C98.1759 28.6733 98.6026 28.24 98.9092 27.68C99.2159 27.1067 99.3692 26.4467 99.3692 25.7C99.3692 24.94 99.2159 24.2867 98.9092 23.74C98.6026 23.18 98.1759 22.7467 97.6292 22.44C97.0959 22.1333 96.4892 21.98 95.8092 21.98C95.1292 21.98 94.5226 22.1333 93.9892 22.44C93.4559 22.7467 93.0292 23.18 92.7092 23.74C92.3892 24.2867 92.2292 24.94 92.2292 25.7C92.2292 26.4467 92.3892 27.1067 92.7092 27.68C93.0292 28.24 93.4559 28.6733 93.9892 28.98C94.5226 29.2867 95.1292 29.44 95.8092 29.44ZM108.505 31.12C107.438 31.12 106.491 30.8867 105.665 30.42C104.838 29.9533 104.185 29.3133 103.705 28.5C103.225 27.6733 102.985 26.74 102.985 25.7C102.985 24.6467 103.225 23.7133 103.705 22.9C104.185 22.0867 104.838 21.4533 105.665 21C106.491 20.5333 107.438 20.3 108.505 20.3C109.558 20.3 110.498 20.5333 111.325 21C112.165 21.4533 112.818 22.0867 113.285 22.9C113.765 23.7 114.005 24.6333 114.005 25.7C114.005 26.7533 113.765 27.6867 113.285 28.5C112.818 29.3133 112.165 29.9533 111.325 30.42C110.498 30.8867 109.558 31.12 108.505 31.12ZM108.505 29.44C109.185 29.44 109.791 29.2867 110.325 28.98C110.871 28.6733 111.298 28.24 111.605 27.68C111.911 27.1067 112.065 26.4467 112.065 25.7C112.065 24.94 111.911 24.2867 111.605 23.74C111.298 23.18 110.871 22.7467 110.325 22.44C109.791 22.1333 109.185 21.98 108.505 21.98C107.825 21.98 107.218 22.1333 106.685 22.44C106.151 22.7467 105.725 23.18 105.405 23.74C105.085 24.2867 104.925 24.94 104.925 25.7C104.925 26.4467 105.085 27.1067 105.405 27.68C105.725 28.24 106.151 28.6733 106.685 28.98C107.218 29.2867 107.825 29.44 108.505 29.44ZM121.3 35C120.327 35 119.38 34.86 118.46 34.58C117.553 34.3133 116.813 33.9267 116.24 33.42L117.16 31.94C117.653 32.3667 118.26 32.7 118.98 32.94C119.7 33.1933 120.453 33.32 121.24 33.32C122.493 33.32 123.413 33.0267 124 32.44C124.587 31.8533 124.88 30.96 124.88 29.76V27.52L125.08 25.42L124.98 23.3V20.4H126.8V29.56C126.8 31.4267 126.333 32.8 125.4 33.68C124.467 34.56 123.1 35 121.3 35ZM121.06 30.56C120.033 30.56 119.113 30.3467 118.3 29.92C117.5 29.48 116.86 28.8733 116.38 28.1C115.913 27.3267 115.68 26.4333 115.68 25.42C115.68 24.3933 115.913 23.5 116.38 22.74C116.86 21.9667 117.5 21.3667 118.3 20.94C119.113 20.5133 120.033 20.3 121.06 20.3C121.967 20.3 122.793 20.4867 123.54 20.86C124.287 21.22 124.88 21.78 125.32 22.54C125.773 23.3 126 24.26 126 25.42C126 26.5667 125.773 27.52 125.32 28.28C124.88 29.04 124.287 29.6133 123.54 30C122.793 30.3733 121.967 30.56 121.06 30.56ZM121.28 28.88C121.987 28.88 122.613 28.7333 123.16 28.44C123.707 28.1467 124.133 27.74 124.44 27.22C124.76 26.7 124.92 26.1 124.92 25.42C124.92 24.74 124.76 24.14 124.44 23.62C124.133 23.1 123.707 22.7 123.16 22.42C122.613 22.1267 121.987 21.98 121.28 21.98C120.573 21.98 119.94 22.1267 119.38 22.42C118.833 22.7 118.4 23.1 118.08 23.62C117.773 24.14 117.62 24.74 117.62 25.42C117.62 26.1 117.773 26.7 118.08 27.22C118.4 27.74 118.833 28.1467 119.38 28.44C119.94 28.7333 120.573 28.88 121.28 28.88ZM130.468 31V16.16H132.388V31H130.468ZM140.774 31.12C139.641 31.12 138.641 30.8867 137.774 30.42C136.921 29.9533 136.254 29.3133 135.774 28.5C135.308 27.6867 135.074 26.7533 135.074 25.7C135.074 24.6467 135.301 23.7133 135.754 22.9C136.221 22.0867 136.854 21.4533 137.654 21C138.468 20.5333 139.381 20.3 140.394 20.3C141.421 20.3 142.328 20.5267 143.114 20.98C143.901 21.4333 144.514 22.0733 144.954 22.9C145.408 23.7133 145.634 24.6667 145.634 25.76C145.634 25.84 145.628 25.9333 145.614 26.04C145.614 26.1467 145.608 26.2467 145.594 26.34H136.574V24.96H144.594L143.814 25.44C143.828 24.76 143.688 24.1533 143.394 23.62C143.101 23.0867 142.694 22.6733 142.174 22.38C141.668 22.0733 141.074 21.92 140.394 21.92C139.728 21.92 139.134 22.0733 138.614 22.38C138.094 22.6733 137.688 23.0933 137.394 23.64C137.101 24.1733 136.954 24.7867 136.954 25.48V25.8C136.954 26.5067 137.114 27.14 137.434 27.7C137.768 28.2467 138.228 28.6733 138.814 28.98C139.401 29.2867 140.074 29.44 140.834 29.44C141.461 29.44 142.028 29.3333 142.534 29.12C143.054 28.9067 143.508 28.5867 143.894 28.16L144.954 29.4C144.474 29.96 143.874 30.3867 143.154 30.68C142.448 30.9733 141.654 31.12 140.774 31.12ZM153.952 31V17H159.412C160.638 17 161.685 17.1933 162.552 17.58C163.418 17.9667 164.085 18.5267 164.552 19.26C165.018 19.9933 165.252 20.8667 165.252 21.88C165.252 22.8933 165.018 23.7667 164.552 24.5C164.085 25.22 163.418 25.78 162.552 26.18C161.685 26.5667 160.638 26.76 159.412 26.76H155.052L155.952 25.82V31H153.952ZM155.952 26.02L155.052 25.02H159.352C160.632 25.02 161.598 24.7467 162.252 24.2C162.918 23.6533 163.252 22.88 163.252 21.88C163.252 20.88 162.918 20.1067 162.252 19.56C161.598 19.0133 160.632 18.74 159.352 18.74H155.052L155.952 17.74V26.02ZM168.105 31V16.16H170.025V31H168.105ZM180.271 31V28.76L180.171 28.34V24.52C180.171 23.7067 179.931 23.08 179.451 22.64C178.984 22.1867 178.278 21.96 177.331 21.96C176.704 21.96 176.091 22.0667 175.491 22.28C174.891 22.48 174.384 22.7533 173.971 23.1L173.171 21.66C173.718 21.22 174.371 20.8867 175.131 20.66C175.904 20.42 176.711 20.3 177.551 20.3C179.004 20.3 180.124 20.6533 180.911 21.36C181.698 22.0667 182.091 23.1467 182.091 24.6V31H180.271ZM176.791 31.12C176.004 31.12 175.311 30.9867 174.711 30.72C174.124 30.4533 173.671 30.0867 173.351 29.62C173.031 29.14 172.871 28.6 172.871 28C172.871 27.4267 173.004 26.9067 173.271 26.44C173.551 25.9733 173.998 25.6 174.611 25.32C175.238 25.04 176.078 24.9 177.131 24.9H180.491V26.28H177.211C176.251 26.28 175.604 26.44 175.271 26.76C174.938 27.08 174.771 27.4667 174.771 27.92C174.771 28.44 174.978 28.86 175.391 29.18C175.804 29.4867 176.378 29.64 177.111 29.64C177.831 29.64 178.458 29.48 178.991 29.16C179.538 28.84 179.931 28.3733 180.171 27.76L180.551 29.08C180.298 29.7067 179.851 30.2067 179.211 30.58C178.571 30.94 177.764 31.12 176.791 31.12ZM185.909 35C185.402 35 184.909 34.9133 184.429 34.74C183.949 34.58 183.536 34.34 183.189 34.02L184.009 32.58C184.276 32.8333 184.569 33.0267 184.889 33.16C185.209 33.2933 185.549 33.36 185.909 33.36C186.376 33.36 186.762 33.24 187.069 33C187.376 32.76 187.662 32.3333 187.929 31.72L188.589 30.26L188.789 30.02L192.949 20.4H194.829L189.689 32.06C189.382 32.8067 189.036 33.3933 188.649 33.82C188.276 34.2467 187.862 34.5467 187.409 34.72C186.956 34.9067 186.456 35 185.909 35ZM188.429 31.34L183.589 20.4H185.589L189.709 29.84L188.429 31.34Z" fill="white"/>
<path d="M79.894 62.084C79.1473 62.084 78.4567 61.9627 77.822 61.72C77.1967 61.468 76.6507 61.118 76.184 60.67C75.7267 60.222 75.3673 59.6947 75.106 59.088C74.854 58.4813 74.728 57.8187 74.728 57.1C74.728 56.3813 74.854 55.7187 75.106 55.112C75.3673 54.5053 75.7313 53.978 76.198 53.53C76.6647 53.082 77.2107 52.7367 77.836 52.494C78.4707 52.242 79.1613 52.116 79.908 52.116C80.6547 52.116 81.336 52.2327 81.952 52.466C82.5773 52.6993 83.1093 53.054 83.548 53.53L82.904 54.188C82.4933 53.7773 82.0407 53.4833 81.546 53.306C81.0513 53.1287 80.5193 53.04 79.95 53.04C79.3433 53.04 78.7833 53.1427 78.27 53.348C77.766 53.544 77.3227 53.8287 76.94 54.202C76.5667 54.566 76.2727 54.9953 76.058 55.49C75.8527 55.9753 75.75 56.512 75.75 57.1C75.75 57.6787 75.8527 58.2153 76.058 58.71C76.2727 59.2047 76.5667 59.6387 76.94 60.012C77.3227 60.376 77.766 60.6607 78.27 60.866C78.7833 61.062 79.3387 61.16 79.936 61.16C80.496 61.16 81.0233 61.076 81.518 60.908C82.022 60.74 82.484 60.4553 82.904 60.054L83.492 60.838C83.0253 61.2487 82.4793 61.5613 81.854 61.776C81.2287 61.9813 80.5753 62.084 79.894 62.084ZM82.498 60.712V57.1H83.492V60.838L82.498 60.712ZM89.3361 62.07C88.5708 62.07 87.8988 61.9113 87.3201 61.594C86.7415 61.2673 86.2888 60.824 85.9621 60.264C85.6355 59.6947 85.4721 59.046 85.4721 58.318C85.4721 57.59 85.6261 56.946 85.9341 56.386C86.2515 55.826 86.6808 55.3873 87.2221 55.07C87.7728 54.7433 88.3888 54.58 89.0701 54.58C89.7608 54.58 90.3721 54.7387 90.9041 55.056C91.4455 55.364 91.8701 55.8027 92.1781 56.372C92.4861 56.932 92.6401 57.5807 92.6401 58.318C92.6401 58.3647 92.6355 58.416 92.6261 58.472C92.6261 58.5187 92.6261 58.57 92.6261 58.626H86.2281V57.884H92.0941L91.7021 58.178C91.7021 57.646 91.5855 57.1747 91.3521 56.764C91.1281 56.344 90.8201 56.0173 90.4281 55.784C90.0361 55.5507 89.5835 55.434 89.0701 55.434C88.5661 55.434 88.1135 55.5507 87.7121 55.784C87.3108 56.0173 86.9981 56.344 86.7741 56.764C86.5501 57.184 86.4381 57.6647 86.4381 58.206V58.36C86.4381 58.92 86.5595 59.4147 86.8021 59.844C87.0541 60.264 87.3995 60.5953 87.8381 60.838C88.2861 61.0713 88.7948 61.188 89.3641 61.188C89.8121 61.188 90.2275 61.1087 90.6101 60.95C91.0021 60.7913 91.3381 60.5487 91.6181 60.222L92.1781 60.866C91.8515 61.258 91.4408 61.5567 90.9461 61.762C90.4608 61.9673 89.9241 62.07 89.3361 62.07ZM96.9873 62.07C96.2967 62.07 95.7647 61.8833 95.3913 61.51C95.018 61.1367 94.8313 60.6093 94.8313 59.928V53.026H95.8253V59.872C95.8253 60.3013 95.9327 60.6327 96.1473 60.866C96.3713 61.0993 96.6887 61.216 97.0993 61.216C97.538 61.216 97.902 61.09 98.1913 60.838L98.5413 61.552C98.3453 61.7293 98.1073 61.86 97.8273 61.944C97.5567 62.028 97.2767 62.07 96.9873 62.07ZM93.5153 55.476V54.65H98.0653V55.476H93.5153ZM104.225 62V52.2H105.261V62H104.225ZM110.564 62.07C109.873 62.07 109.341 61.8833 108.968 61.51C108.594 61.1367 108.408 60.6093 108.408 59.928V53.026H109.402V59.872C109.402 60.3013 109.509 60.6327 109.724 60.866C109.948 61.0993 110.265 61.216 110.676 61.216C111.114 61.216 111.478 61.09 111.768 60.838L112.118 61.552C111.922 61.7293 111.684 61.86 111.404 61.944C111.133 62.028 110.853 62.07 110.564 62.07ZM107.092 55.476V54.65H111.642V55.476H107.092ZM117.801 62V52.2H118.655L125.417 60.712H124.969V52.2H125.991V62H125.137L118.389 53.488H118.837V62H117.801ZM131.976 62.07C131.266 62.07 130.627 61.9113 130.058 61.594C129.498 61.2673 129.054 60.824 128.728 60.264C128.401 59.6947 128.238 59.046 128.238 58.318C128.238 57.5807 128.401 56.932 128.728 56.372C129.054 55.812 129.498 55.3733 130.058 55.056C130.618 54.7387 131.257 54.58 131.976 54.58C132.704 54.58 133.348 54.7387 133.908 55.056C134.477 55.3733 134.92 55.812 135.238 56.372C135.564 56.932 135.728 57.5807 135.728 58.318C135.728 59.046 135.564 59.6947 135.238 60.264C134.92 60.824 134.477 61.2673 133.908 61.594C133.338 61.9113 132.694 62.07 131.976 62.07ZM131.976 61.188C132.508 61.188 132.979 61.0713 133.39 60.838C133.8 60.5953 134.122 60.2593 134.356 59.83C134.598 59.3913 134.72 58.8873 134.72 58.318C134.72 57.7393 134.598 57.2353 134.356 56.806C134.122 56.3767 133.8 56.0453 133.39 55.812C132.979 55.5693 132.512 55.448 131.99 55.448C131.467 55.448 131 55.5693 130.59 55.812C130.179 56.0453 129.852 56.3767 129.61 56.806C129.367 57.2353 129.246 57.7393 129.246 58.318C129.246 58.8873 129.367 59.3913 129.61 59.83C129.852 60.2593 130.179 60.5953 130.59 60.838C131 61.0713 131.462 61.188 131.976 61.188ZM139.05 62L136.278 54.65H137.23L139.75 61.468H139.316L141.906 54.65H142.76L145.322 61.468H144.888L147.45 54.65H148.36L145.574 62H144.636L142.172 55.588H142.466L139.988 62H139.05Z" fill="#DEE4F9"/>
<path d="M16.5 20.5773V57.421C16.5002 57.501 16.5241 57.5791 16.5685 57.6455C16.613 57.7119 16.6761 57.7638 16.7498 57.7945C16.8236 57.8253 16.9049 57.8335 16.9833 57.8183C17.0618 57.803 17.134 57.765 17.1909 57.7089L36.375 39.0001L17.1909 20.2895C17.134 20.2334 17.0618 20.1953 16.9833 20.1801C16.9049 20.1648 16.8236 20.1731 16.7498 20.2038C16.6761 20.2346 16.613 20.2864 16.5685 20.3528C16.5241 20.4193 16.5002 20.4974 16.5 20.5773Z" fill="white"/>
<path d="M44.4188 31.3125L20.3644 18.06L20.3494 18.0516C19.935 17.8266 19.5413 18.3872 19.8806 18.7135L38.7366 36.7435L44.4188 31.3125Z" fill="white"/>
<path d="M19.8825 59.2865C19.5412 59.6128 19.935 60.1734 20.3512 59.9484L20.3662 59.9399L44.4187 46.6875L38.7366 41.2546L19.8825 59.2865Z" fill="white"/>
<path d="M54.1294 36.6562L47.4122 32.9568L41.0963 38.9999L47.4122 45.0402L54.1294 41.3437C55.9566 40.334 55.9566 37.6659 54.1294 36.6562Z" fill="white"/>
<rect x="0.5" y="0.5" width="298" height="76" rx="7.5" stroke="#DDE8F9"/>
</svg>
