<svg width="13" height="15" viewBox="0 0 13 15" fill="none" xmlns="http://www.w3.org/2000/svg">
<path d="M6.37363 8.175C7.48654 8.175 8.38874 7.26838 8.38874 6.15C8.38874 5.03162 7.48654 4.125 6.37363 4.125C5.26072 4.125 4.35852 5.03162 4.35852 6.15C4.35852 7.26838 5.26072 8.175 6.37363 8.175Z" stroke="#212A41" stroke-width="0.75" stroke-linecap="round" stroke-linejoin="round"/>
<path d="M6.37362 0.75C4.94845 0.75 3.58165 1.31893 2.5739 2.33162C1.56615 3.34432 1 4.71783 1 6.15C1 7.4271 1.27002 8.26275 2.00755 9.1875L6.37362 14.25L10.7397 9.1875C11.4772 8.26275 11.7472 7.4271 11.7472 6.15C11.7472 4.71783 11.1811 3.34432 10.1734 2.33162C9.1656 1.31893 7.7988 0.75 6.37362 0.75V0.75Z" stroke="#212A41" stroke-width="0.75" stroke-linecap="round" stroke-linejoin="round"/>
</svg>
