<svg width="48" height="48" viewBox="0 0 48 48" fill="none" xmlns="http://www.w3.org/2000/svg">
<path d="M47.1066 42.0557H0.893403C0.706974 42.0557 0.534725 41.957 0.440198 41.7963C0.346196 41.6356 0.344096 41.4366 0.434947 41.2743L8.80951 26.2965C8.90246 26.1311 9.07787 26.0276 9.26797 26.0276H20.9925C21.2824 26.0276 21.5176 26.2624 21.5176 26.5528C21.5176 26.8432 21.2824 27.0779 20.9925 27.0779H9.57623L1.78878 41.0054H46.2112L38.4238 27.0774H27.0081C26.7177 27.0774 26.4829 26.8426 26.4829 26.5522C26.4829 26.2618 26.7177 26.0271 27.0081 26.0271H38.732C38.9221 26.0271 39.0975 26.13 39.1905 26.296L47.5651 41.2738C47.6559 41.4366 47.6538 41.6351 47.5593 41.7958C47.4648 41.9565 47.2925 42.0557 47.1066 42.0557Z" fill="#515C77"/>
<path d="M24 32.1682C23.8141 32.1682 23.6424 32.07 23.5479 31.9103L22.611 30.3249C19.7999 25.5718 16.8932 20.6574 15.9636 18.7931C15.366 17.5664 15.0641 16.2514 15.0641 14.8808C15.0641 9.95329 19.0725 5.94482 24 5.94482C28.9275 5.94482 32.936 9.95329 32.936 14.8808C32.936 16.2425 32.6387 17.5485 32.0511 18.7632C31.1063 20.658 28.1981 25.5755 25.3859 30.3312L24.4522 31.9103C24.3576 32.07 24.1859 32.1682 24 32.1682ZM24 6.99512C19.6518 6.99512 16.1144 10.5325 16.1144 14.8808C16.1144 16.0907 16.3806 17.2508 16.9058 18.3284C17.8158 20.1549 20.7131 25.0535 23.5148 29.7898L24 30.6111L24.4611 29.8313C27.2843 25.0571 30.1831 20.1559 31.0979 18.32C31.6226 17.2355 31.8851 16.0834 31.8851 14.8813C31.8857 10.5325 28.3477 6.99512 24 6.99512Z" fill="#515C77"/>
<path d="M24.0126 19.2726C21.5082 19.2726 19.4706 17.235 19.4706 14.7306C19.4706 12.2262 21.5082 10.1886 24.0126 10.1886C26.517 10.1886 28.5546 12.2262 28.5546 14.7306C28.5546 17.235 26.517 19.2726 24.0126 19.2726ZM24.0126 11.2389C22.0874 11.2389 20.5209 12.8054 20.5209 14.7306C20.5209 16.6563 22.0874 18.2223 24.0126 18.2223C25.9383 18.2223 27.5043 16.6558 27.5043 14.7306C27.5043 12.8054 25.9378 11.2389 24.0126 11.2389Z" fill="#515C77"/>
<path d="M0.89339 42.0557C0.661799 42.0557 0.449638 41.9013 0.38662 41.6671C0.311524 41.3872 0.477471 41.0989 0.757376 41.0233L40.9319 30.2236C41.2107 30.1474 41.5001 30.3139 41.5757 30.5943C41.6513 30.8742 41.4849 31.1625 41.205 31.2382L1.02993 42.0379C0.984241 42.0499 0.938028 42.0557 0.89339 42.0557Z" fill="#515C77"/>
<path d="M33.7263 38.8507C33.5761 38.8507 33.4275 38.7872 33.3235 38.6632L29.4731 34.0771C29.2867 33.855 29.3151 33.5236 29.5377 33.3377C29.7599 33.1513 30.0923 33.1796 30.2771 33.4023L34.1275 37.9884C34.314 38.2106 34.2856 38.5419 34.0629 38.7278C33.9658 38.8103 33.8455 38.8507 33.7263 38.8507Z" fill="#515C77"/>
<path d="M18.4434 37.3378C18.2937 37.3378 18.1451 37.2742 18.0411 37.1503L12.7649 30.8663C12.5785 30.6442 12.6074 30.3128 12.8295 30.1269C13.0522 29.941 13.383 29.9689 13.5695 30.1915L18.8457 36.4755C19.0321 36.6976 19.0032 37.029 18.7811 37.2149C18.6829 37.2973 18.5626 37.3378 18.4434 37.3378Z" fill="#515C77"/>
</svg>
