<svg width="48" height="48" viewBox="0 0 48 48" fill="none" xmlns="http://www.w3.org/2000/svg">
<path fill-rule="evenodd" clip-rule="evenodd" d="M7 16C7.0004 14.1038 7.49094 12.24 8.42404 10.5893C9.35713 8.93856 10.7011 7.5571 12.3255 6.57893C13.9499 5.60076 15.7995 5.0591 17.695 5.00652C19.5904 4.95394 21.4673 5.39222 23.1434 6.27883C24.8195 7.16545 26.238 8.47028 27.2612 10.0667C28.2843 11.6631 28.8774 13.497 28.983 15.3902C29.0885 17.2834 28.7028 19.1718 27.8634 20.872C27.0239 22.5723 25.7592 24.0266 24.192 25.094C27.567 26.3319 30.4943 28.5514 32.5973 31.467C34.7002 34.3826 35.8825 37.8608 35.992 41.454C35.9979 41.651 35.965 41.8472 35.895 42.0314C35.8251 42.2157 35.7196 42.3844 35.5845 42.5278C35.3116 42.8176 34.9348 42.9871 34.537 42.999C34.1392 43.0109 33.7529 42.8643 33.4632 42.5915C33.1734 42.3186 33.0039 41.9418 32.992 41.544C32.8729 37.6469 31.2411 33.9493 28.4423 31.2348C25.6436 28.5203 21.8979 27.0022 17.999 27.0022C14.1001 27.0022 10.3544 28.5203 7.55566 31.2348C4.75692 33.9493 3.1251 37.6469 3.006 41.544C2.98598 41.9357 2.81336 42.3039 2.52512 42.5699C2.23688 42.8358 1.85596 42.9783 1.46395 42.9668C1.07194 42.9553 0.700024 42.7907 0.427883 42.5083C0.155742 42.2259 0.00501765 41.8482 0.00800091 41.456C0.117104 37.8625 1.29921 34.3838 3.40217 31.4678C5.50513 28.5519 8.43268 26.332 11.808 25.094C10.3254 24.0855 9.11215 22.7295 8.27408 21.1444C7.43601 19.5592 6.99859 17.7931 7 16ZM18 8C15.8783 8 13.8434 8.84285 12.3431 10.3431C10.8429 11.8434 10 13.8783 10 16C10 18.1217 10.8429 20.1566 12.3431 21.6569C13.8434 23.1571 15.8783 24 18 24C20.1217 24 22.1566 23.1571 23.6569 21.6569C25.1571 20.1566 26 18.1217 26 16C26 13.8783 25.1571 11.8434 23.6569 10.3431C22.1566 8.84285 20.1217 8 18 8Z" fill="#515C77"/>
<path d="M34.58 16C34.284 16 33.996 16.02 33.712 16.06C33.5137 16.0955 33.3103 16.0907 33.1139 16.0459C32.9175 16.0011 32.7322 15.9172 32.5689 15.7992C32.4057 15.6812 32.2679 15.5315 32.1637 15.3591C32.0595 15.1867 31.9912 14.995 31.9627 14.7956C31.9342 14.5962 31.9462 14.3931 31.9979 14.1984C32.0496 14.0037 32.14 13.8214 32.2637 13.6625C32.3874 13.5035 32.5418 13.371 32.7178 13.273C32.8938 13.175 33.0877 13.1134 33.288 13.092C35.2771 12.8044 37.3055 13.1864 39.0537 14.1778C40.802 15.1693 42.171 16.7139 42.9452 18.5686C43.7194 20.4234 43.855 22.4829 43.3305 24.4231C42.806 26.3633 41.6513 28.074 40.048 29.286C42.4048 30.3413 44.4058 32.056 45.8097 34.2233C47.2137 36.3905 47.9604 38.9177 47.96 41.5C47.96 41.8978 47.802 42.2794 47.5207 42.5607C47.2394 42.842 46.8578 43 46.46 43C46.0622 43 45.6806 42.842 45.3993 42.5607C45.118 42.2794 44.96 41.8978 44.96 41.5C44.9598 39.2683 44.2407 37.096 42.9093 35.305C41.5779 33.5139 39.705 32.1993 37.568 31.556L36.5 31.236V27.884L37.32 27.466C38.5355 26.8503 39.5081 25.8429 40.0806 24.6065C40.6532 23.3701 40.7923 21.9768 40.4757 20.6515C40.159 19.3263 39.4049 18.1464 38.3352 17.3024C37.2655 16.4585 35.9426 15.9996 34.58 16Z" fill="#515C77"/>
</svg>
