<svg width="86" height="14" viewBox="0 0 86 14" fill="none" xmlns="http://www.w3.org/2000/svg">
<path d="M6.35191 0.44308C6.5759 -0.147693 7.42357 -0.147693 7.64826 0.44308L9.09719 4.4567C9.14774 4.58745 9.23675 4.69979 9.35247 4.77889C9.46819 4.858 9.60519 4.90015 9.74536 4.89978H13.3061C13.9641 4.89978 14.2511 5.71874 13.7338 6.11983L11.1999 8.39962C11.0864 8.48688 11.0034 8.60785 10.963 8.74517C10.9225 8.88249 10.9265 9.02911 10.9745 9.16399L11.8999 13.0859C12.1253 13.7159 11.3959 14.257 10.8443 13.8692L7.40257 11.6853C7.2847 11.6024 7.14415 11.558 7.00008 11.558C6.85602 11.558 6.71547 11.6024 6.5976 11.6853L3.15586 13.8692C2.60498 14.257 1.87491 13.7152 2.1003 13.0859L3.02566 9.16399C3.07366 9.02911 3.07771 8.88249 3.03722 8.74517C2.99672 8.60785 2.91378 8.48688 2.80027 8.39962L0.266384 6.11983C-0.251593 5.71874 0.0367937 4.89978 0.693365 4.89978H4.25411C4.3943 4.90025 4.53134 4.85814 4.64708 4.77902C4.76282 4.6999 4.85181 4.5875 4.90228 4.4567L6.35121 0.44308H6.35191Z" fill="#EAC953"/>
<path d="M6.35191 0.44308C6.5759 -0.147693 7.42357 -0.147693 7.64826 0.44308L9.09719 4.4567C9.14774 4.58745 9.23675 4.69979 9.35247 4.77889C9.46819 4.858 9.60519 4.90015 9.74536 4.89978H13.3061C13.9641 4.89978 14.2511 5.71874 13.7338 6.11983L11.1999 8.39962C11.0864 8.48688 11.0034 8.60785 10.963 8.74517C10.9225 8.88249 10.9265 9.02911 10.9745 9.16399L11.8999 13.0859C12.1253 13.7159 11.3959 14.257 10.8443 13.8692L7.40257 11.6853C7.2847 11.6024 7.14415 11.558 7.00008 11.558C6.85602 11.558 6.71547 11.6024 6.5976 11.6853L3.15586 13.8692C2.60498 14.257 1.87491 13.7152 2.1003 13.0859L3.02566 9.16399C3.07366 9.02911 3.07771 8.88249 3.03722 8.74517C2.99672 8.60785 2.91378 8.48688 2.80027 8.39962L0.266384 6.11983C-0.251593 5.71874 0.0367937 4.89978 0.693365 4.89978H4.25411C4.3943 4.90025 4.53134 4.85814 4.64708 4.77902C4.76282 4.6999 4.85181 4.5875 4.90228 4.4567L6.35121 0.44308H6.35191Z" stroke="#EAC953"/>
<path d="M24.3519 0.44308C24.5759 -0.147693 25.4236 -0.147693 25.6483 0.44308L27.0972 4.4567C27.1477 4.58745 27.2368 4.69979 27.3525 4.77889C27.4682 4.858 27.6052 4.90015 27.7454 4.89978H31.3061C31.9641 4.89978 32.2511 5.71874 31.7338 6.11983L29.1999 8.39962C29.0864 8.48688 29.0034 8.60785 28.963 8.74517C28.9225 8.88249 28.9265 9.02911 28.9745 9.16399L29.8999 13.0859C30.1253 13.7159 29.3959 14.257 28.8443 13.8692L25.4026 11.6853C25.2847 11.6024 25.1441 11.558 25.0001 11.558C24.856 11.558 24.7155 11.6024 24.5976 11.6853L21.1559 13.8692C20.605 14.257 19.8749 13.7152 20.1003 13.0859L21.0257 9.16399C21.0737 9.02911 21.0777 8.88249 21.0372 8.74517C20.9967 8.60785 20.9138 8.48688 20.8003 8.39962L18.2664 6.11983C17.7484 5.71874 18.0368 4.89978 18.6934 4.89978H22.2541C22.3943 4.90025 22.5313 4.85814 22.6471 4.77902C22.7628 4.6999 22.8518 4.5875 22.9023 4.4567L24.3512 0.44308H24.3519Z" fill="#EAC953"/>
<path d="M24.3519 0.44308C24.5759 -0.147693 25.4236 -0.147693 25.6483 0.44308L27.0972 4.4567C27.1477 4.58745 27.2368 4.69979 27.3525 4.77889C27.4682 4.858 27.6052 4.90015 27.7454 4.89978H31.3061C31.9641 4.89978 32.2511 5.71874 31.7338 6.11983L29.1999 8.39962C29.0864 8.48688 29.0034 8.60785 28.963 8.74517C28.9225 8.88249 28.9265 9.02911 28.9745 9.16399L29.8999 13.0859C30.1253 13.7159 29.3959 14.257 28.8443 13.8692L25.4026 11.6853C25.2847 11.6024 25.1441 11.558 25.0001 11.558C24.856 11.558 24.7155 11.6024 24.5976 11.6853L21.1559 13.8692C20.605 14.257 19.8749 13.7152 20.1003 13.0859L21.0257 9.16399C21.0737 9.02911 21.0777 8.88249 21.0372 8.74517C20.9967 8.60785 20.9138 8.48688 20.8003 8.39962L18.2664 6.11983C17.7484 5.71874 18.0368 4.89978 18.6934 4.89978H22.2541C22.3943 4.90025 22.5313 4.85814 22.6471 4.77902C22.7628 4.6999 22.8518 4.5875 22.9023 4.4567L24.3512 0.44308H24.3519Z" stroke="#EAC953"/>
<path d="M42.3519 0.44308C42.5759 -0.147693 43.4236 -0.147693 43.6483 0.44308L45.0972 4.4567C45.1477 4.58745 45.2368 4.69979 45.3525 4.77889C45.4682 4.858 45.6052 4.90015 45.7454 4.89978H49.3061C49.9641 4.89978 50.2511 5.71874 49.7338 6.11983L47.1999 8.39962C47.0864 8.48688 47.0034 8.60785 46.963 8.74517C46.9225 8.88249 46.9265 9.02911 46.9745 9.16399L47.8999 13.0859C48.1253 13.7159 47.3959 14.257 46.8443 13.8692L43.4026 11.6853C43.2847 11.6024 43.1441 11.558 43.0001 11.558C42.856 11.558 42.7155 11.6024 42.5976 11.6853L39.1559 13.8692C38.605 14.257 37.8749 13.7152 38.1003 13.0859L39.0257 9.16399C39.0737 9.02911 39.0777 8.88249 39.0372 8.74517C38.9967 8.60785 38.9138 8.48688 38.8003 8.39962L36.2664 6.11983C35.7484 5.71874 36.0368 4.89978 36.6934 4.89978H40.2541C40.3943 4.90025 40.5313 4.85814 40.6471 4.77902C40.7628 4.6999 40.8518 4.5875 40.9023 4.4567L42.3512 0.44308H42.3519Z" fill="#EAC953"/>
<path d="M42.3519 0.44308C42.5759 -0.147693 43.4236 -0.147693 43.6483 0.44308L45.0972 4.4567C45.1477 4.58745 45.2368 4.69979 45.3525 4.77889C45.4682 4.858 45.6052 4.90015 45.7454 4.89978H49.3061C49.9641 4.89978 50.2511 5.71874 49.7338 6.11983L47.1999 8.39962C47.0864 8.48688 47.0034 8.60785 46.963 8.74517C46.9225 8.88249 46.9265 9.02911 46.9745 9.16399L47.8999 13.0859C48.1253 13.7159 47.3959 14.257 46.8443 13.8692L43.4026 11.6853C43.2847 11.6024 43.1441 11.558 43.0001 11.558C42.856 11.558 42.7155 11.6024 42.5976 11.6853L39.1559 13.8692C38.605 14.257 37.8749 13.7152 38.1003 13.0859L39.0257 9.16399C39.0737 9.02911 39.0777 8.88249 39.0372 8.74517C38.9967 8.60785 38.9138 8.48688 38.8003 8.39962L36.2664 6.11983C35.7484 5.71874 36.0368 4.89978 36.6934 4.89978H40.2541C40.3943 4.90025 40.5313 4.85814 40.6471 4.77902C40.7628 4.6999 40.8518 4.5875 40.9023 4.4567L42.3512 0.44308H42.3519Z" stroke="#EAC953"/>
<path d="M60.3519 0.44308C60.5759 -0.147693 61.4236 -0.147693 61.6483 0.44308L63.0972 4.4567C63.1477 4.58745 63.2368 4.69979 63.3525 4.77889C63.4682 4.858 63.6052 4.90015 63.7454 4.89978H67.3061C67.9641 4.89978 68.2511 5.71874 67.7338 6.11983L65.1999 8.39962C65.0864 8.48688 65.0034 8.60785 64.963 8.74517C64.9225 8.88249 64.9265 9.02911 64.9745 9.16399L65.8999 13.0859C66.1253 13.7159 65.3959 14.257 64.8443 13.8692L61.4026 11.6853C61.2847 11.6024 61.1441 11.558 61.0001 11.558C60.856 11.558 60.7155 11.6024 60.5976 11.6853L57.1559 13.8692C56.605 14.257 55.8749 13.7152 56.1003 13.0859L57.0257 9.16399C57.0737 9.02911 57.0777 8.88249 57.0372 8.74517C56.9967 8.60785 56.9138 8.48688 56.8003 8.39962L54.2664 6.11983C53.7484 5.71874 54.0368 4.89978 54.6934 4.89978H58.2541C58.3943 4.90025 58.5313 4.85814 58.6471 4.77902C58.7628 4.6999 58.8518 4.5875 58.9023 4.4567L60.3512 0.44308H60.3519Z" fill="#EAC953"/>
<path d="M60.3519 0.44308C60.5759 -0.147693 61.4236 -0.147693 61.6483 0.44308L63.0972 4.4567C63.1477 4.58745 63.2368 4.69979 63.3525 4.77889C63.4682 4.858 63.6052 4.90015 63.7454 4.89978H67.3061C67.9641 4.89978 68.2511 5.71874 67.7338 6.11983L65.1999 8.39962C65.0864 8.48688 65.0034 8.60785 64.963 8.74517C64.9225 8.88249 64.9265 9.02911 64.9745 9.16399L65.8999 13.0859C66.1253 13.7159 65.3959 14.257 64.8443 13.8692L61.4026 11.6853C61.2847 11.6024 61.1441 11.558 61.0001 11.558C60.856 11.558 60.7155 11.6024 60.5976 11.6853L57.1559 13.8692C56.605 14.257 55.8749 13.7152 56.1003 13.0859L57.0257 9.16399C57.0737 9.02911 57.0777 8.88249 57.0372 8.74517C56.9967 8.60785 56.9138 8.48688 56.8003 8.39962L54.2664 6.11983C53.7484 5.71874 54.0368 4.89978 54.6934 4.89978H58.2541C58.3943 4.90025 58.5313 4.85814 58.6471 4.77902C58.7628 4.6999 58.8518 4.5875 58.9023 4.4567L60.3512 0.44308H60.3519Z" stroke="#EAC953"/>
<path d="M78.3519 0.44308C78.5759 -0.147693 79.4236 -0.147693 79.6483 0.44308L81.0972 4.4567C81.1477 4.58745 81.2368 4.69979 81.3525 4.77889C81.4682 4.858 81.6052 4.90015 81.7454 4.89978H85.3061C85.9641 4.89978 86.2511 5.71874 85.7338 6.11983L83.1999 8.39962C83.0864 8.48688 83.0034 8.60785 82.963 8.74517C82.9225 8.88249 82.9265 9.02911 82.9745 9.16399L83.8999 13.0859C84.1253 13.7159 83.3959 14.257 82.8443 13.8692L79.4026 11.6853C79.2847 11.6024 79.1441 11.558 79.0001 11.558C78.856 11.558 78.7155 11.6024 78.5976 11.6853L75.1559 13.8692C74.605 14.257 73.8749 13.7152 74.1003 13.0859L75.0257 9.16399C75.0737 9.02911 75.0777 8.88249 75.0372 8.74517C74.9967 8.60785 74.9138 8.48688 74.8003 8.39962L72.2664 6.11983C71.7484 5.71874 72.0368 4.89978 72.6934 4.89978H76.2541C76.3943 4.90025 76.5313 4.85814 76.6471 4.77902C76.7628 4.6999 76.8518 4.5875 76.9023 4.4567L78.3512 0.44308H78.3519Z" fill="#EAC953"/>
<path d="M78.3519 0.44308C78.5759 -0.147693 79.4236 -0.147693 79.6483 0.44308L81.0972 4.4567C81.1477 4.58745 81.2368 4.69979 81.3525 4.77889C81.4682 4.858 81.6052 4.90015 81.7454 4.89978H85.3061C85.9641 4.89978 86.2511 5.71874 85.7338 6.11983L83.1999 8.39962C83.0864 8.48688 83.0034 8.60785 82.963 8.74517C82.9225 8.88249 82.9265 9.02911 82.9745 9.16399L83.8999 13.0859C84.1253 13.7159 83.3959 14.257 82.8443 13.8692L79.4026 11.6853C79.2847 11.6024 79.1441 11.558 79.0001 11.558C78.856 11.558 78.7155 11.6024 78.5976 11.6853L75.1559 13.8692C74.605 14.257 73.8749 13.7152 74.1003 13.0859L75.0257 9.16399C75.0737 9.02911 75.0777 8.88249 75.0372 8.74517C74.9967 8.60785 74.9138 8.48688 74.8003 8.39962L72.2664 6.11983C71.7484 5.71874 72.0368 4.89978 72.6934 4.89978H76.2541C76.3943 4.90025 76.5313 4.85814 76.6471 4.77902C76.7628 4.6999 76.8518 4.5875 76.9023 4.4567L78.3512 0.44308H78.3519Z" stroke="#EAC953"/>
</svg>
