<svg width="48" height="48" viewBox="0 0 48 48" fill="none" xmlns="http://www.w3.org/2000/svg">
<g clip-path="url(#clip0_56_587)">
<path d="M37.0084 2.18034H29.53L29.226 0.814671C29.1216 0.338817 28.6987 0 28.2111 0H19.7873C19.2997 0 18.8785 0.338817 18.7725 0.814671L18.47 2.18034H10.9901C8.25396 2.18034 6.02927 4.40585 6.02927 7.14198V43.0385C6.02927 45.7746 8.25396 48.0001 10.9901 48.0001H37.0085C39.7446 48.0001 41.9709 45.7746 41.9709 43.0385V7.14198C41.9708 4.40585 39.7445 2.18034 37.0084 2.18034ZM38.728 43.0384C38.728 43.9861 37.9569 44.7572 37.0084 44.7572H10.99C10.0431 44.7572 9.27194 43.9861 9.27194 43.0384V7.14198C9.27194 6.19425 10.0431 5.42322 10.99 5.42322H17.7494L17.5769 6.19904C17.5071 6.50696 17.5832 6.82998 17.7796 7.0755C17.9774 7.32174 18.2768 7.46499 18.5917 7.46499H29.408C29.7231 7.46499 30.0224 7.32174 30.2187 7.0755C30.4167 6.82926 30.4926 6.50707 30.423 6.19904L30.2505 5.42322H37.0084C37.9569 5.42322 38.728 6.19435 38.728 7.14198V43.0384Z" fill="#515C77"/>
<path d="M17.4185 19.2121H21.8283L20.7802 18.4965C19.3012 17.4872 18.9212 15.4689 19.9314 13.9901C20.9401 12.5128 22.9589 12.1304 24.4378 13.1414L24.6105 13.2593V12.0219C24.6105 11.2199 23.9597 10.5692 23.1583 10.5692H17.4185C16.6174 10.5692 15.9666 11.22 15.9666 12.0219V17.7594C15.9666 18.5615 16.6174 19.2121 17.4185 19.2121Z" fill="#515C77"/>
<path d="M30.9204 11.2477L25.8376 16.0596L23.5227 14.4802C22.7864 13.9743 21.7761 14.1659 21.2694 14.9046C20.7643 15.6439 20.9544 16.6526 21.6954 17.1577L25.0887 19.475C25.3658 19.6651 25.684 19.7576 26.0024 19.7576C26.4061 19.7576 26.8066 19.6074 27.1171 19.3135L33.1498 13.6022C33.8006 12.9871 33.8274 11.9603 33.2131 11.3103C32.5956 10.6603 31.571 10.6325 30.9204 11.2477Z" fill="#515C77"/>
<path d="M17.4185 30.3507H21.8299L20.7802 29.6342C19.3012 28.6247 18.9212 26.6067 19.9314 25.1278C20.9401 23.6496 22.9589 23.2673 24.4378 24.279L24.6105 24.3971V23.1597C24.6105 22.3578 23.9597 21.7069 23.1583 21.7069H17.4185C16.6174 21.7069 15.9666 22.3578 15.9666 23.1597V28.898C15.9666 29.6999 16.6174 30.3507 17.4185 30.3507Z" fill="#515C77"/>
<path d="M30.9204 22.3861L25.8376 27.1973L23.5227 25.6179C22.7864 25.1111 21.7761 25.302 21.2694 26.0422C20.7643 26.7818 20.9544 27.7903 21.6954 28.2955L25.0887 30.6128C25.3658 30.8028 25.684 30.8954 26.0024 30.8954C26.4061 30.8954 26.8066 30.7449 27.1171 30.4513L33.1498 24.7407C33.8006 24.1256 33.8274 23.0995 33.2131 22.4487C32.5956 21.7986 31.571 21.7717 30.9204 22.3861Z" fill="#515C77"/>
<path d="M23.1583 32.8453H17.4185C16.6174 32.8453 15.9666 33.4961 15.9666 34.298V40.0355C15.9666 40.8374 16.6174 41.4882 17.4185 41.4882H23.1583C23.9597 41.4882 24.6105 40.8374 24.6105 40.0355V34.298C24.6105 33.4961 23.9597 32.8453 23.1583 32.8453Z" fill="#515C77"/>
</g>
<defs>
<clipPath id="clip0_56_587">
<rect width="48" height="48" fill="white"/>
</clipPath>
</defs>
</svg>
